<svg xmlns="http://www.w3.org/2000/svg" viewBox="0 0 123.71 147.03"><defs><style>.cls-1{fill:#4f4d8a;}</style></defs><g id="Layer_2" data-name="Layer 2"><g id="Layer_1-2" data-name="Layer 1"><g id="Logo"><path class="cls-1" d="M71,0,4.44,106.34A33.82,33.82,0,0,0,.56,116.41c-.94,5.44-1,12.94,2.44,17.88C11.66,146.63,13.18,147,13.18,147L77.83,44.63,82.36,37a17.69,17.69,0,0,0,2.41-7.44c.45-5.16.39-13.71-4-19.31C74.19,1.75,71,0,71,0Z"/><path class="cls-1" d="M123.71,84.27,68,85.7a12.91,12.91,0,0,0-4.58,1.13c-3.34,1.69-9.31,5.72-9.22,13.48.11,8.67,5.28,14.11,9.3,15a4.49,4.49,0,0,0,1,.09h.66l1.29,0,32.41-.78s9-.65,17.26-10.12A31.83,31.83,0,0,0,123.71,84.27Z"/></g></g></g></svg>